<svg xmlns="http://www.w3.org/2000/svg" width="20" height="20" viewBox="0 0 20 20">
  <path id="cart-2" d="M4.337,19.072,3.464,19Zm18.224,0L23.435,19Zm-.891-8.649L20.8,10.5Zm-16.442,0L6.1,10.5ZM7.894,8.466a.88.88,0,0,0,1.754,0Zm9.356,0a.88.88,0,0,0,1.754,0Zm-7.6,3.243a.88.88,0,0,0-1.754,0Zm-1.754.011a.88.88,0,0,0,1.754,0ZM19,11.709a.88.88,0,0,0-1.754,0Zm-1.754.011a.88.88,0,0,0,1.754,0ZM7.557,9.277H19.342V7.655H7.557ZM20.8,10.5l.891,8.649L23.435,19l-.891-8.649Zm-.564,10.128H6.666V22.25H20.233ZM5.21,19.149,6.1,10.5l-1.746-.154L3.464,19Zm1.455,1.479A1.4,1.4,0,0,1,5.21,19.149L3.464,19a3.074,3.074,0,0,0,3.2,3.255Zm15.022-1.479a1.4,1.4,0,0,1-1.455,1.479V22.25A3.074,3.074,0,0,0,23.435,19ZM19.342,9.277A1.423,1.423,0,0,1,20.8,10.5l1.746-.154a3.131,3.131,0,0,0-3.2-2.691ZM7.557,7.655a3.131,3.131,0,0,0-3.2,2.691L6.1,10.5A1.423,1.423,0,0,1,7.557,9.277Zm2.092-.27a3.666,3.666,0,0,1,3.8-3.514V2.25A5.358,5.358,0,0,0,7.894,7.385Zm3.8-3.514a3.666,3.666,0,0,1,3.8,3.514H19A5.358,5.358,0,0,0,13.449,2.25ZM7.894,7.385V8.466H9.648V7.385Zm9.356,0V8.466H19V7.385ZM7.894,11.709v.011H9.648v-.011Zm9.356,0v.011H19v-.011Z" transform="translate(-3.449 -2.25)"/>
</svg>
