<svg xmlns="http://www.w3.org/2000/svg" width="40" height="40" viewBox="0 0 40 40">
  <path id="image-1" d="M13.16,28.768l1.212,1.212Zm6.465,0L18.413,29.98Zm.392.392,1.212-1.212Zm6.465,0L25.27,27.948h0ZM31.446,24.2l-1.212-1.212Zm6.465,0,1.212-1.212ZM7.25,6.679h32V3.25h-32Zm32.571.571v32H43.25v-32ZM39.25,39.821h-32V43.25h32ZM6.679,39.25v-32H3.25v32Zm.571.571a.571.571,0,0,1-.571-.571H3.25a4,4,0,0,0,4,4Zm32.571-.571a.571.571,0,0,1-.571.571V43.25a4,4,0,0,0,4-4ZM39.25,6.679a.571.571,0,0,1,.571.571H43.25a4,4,0,0,0-4-4ZM7.25,3.25a4,4,0,0,0-4,4H6.679a.571.571,0,0,1,.571-.571ZM6.176,38.176l8.2-8.2-2.424-2.424-8.2,8.2Zm12.237-8.2.392.392,2.424-2.424-.392-.392Zm9.281.392,4.964-4.964-2.424-2.424L25.27,27.948Zm9-4.964,3.625,3.625,2.424-2.424-3.625-3.625Zm-4.041,0a2.857,2.857,0,0,1,4.041,0l2.424-2.424a6.285,6.285,0,0,0-8.889,0ZM18.805,30.373a6.285,6.285,0,0,0,8.889,0L25.27,27.948a2.857,2.857,0,0,1-4.041,0Zm-4.433-.392a2.857,2.857,0,0,1,4.041,0l2.424-2.424a6.285,6.285,0,0,0-8.889,0Zm4.171-13.939a2.507,2.507,0,0,1-2.505,2.505v3.429a5.935,5.935,0,0,0,5.934-5.934Zm-2.505,2.505a2.506,2.506,0,0,1-2.5-2.505H10.107a5.935,5.935,0,0,0,5.931,5.934Zm-2.5-2.505a2.506,2.506,0,0,1,2.5-2.505V10.107a5.935,5.935,0,0,0-5.931,5.934Zm2.5-2.505a2.507,2.507,0,0,1,2.505,2.505h3.429a5.935,5.935,0,0,0-5.934-5.934Z" transform="translate(-3.25 -3.25)" fill="#83858d"/>
</svg>
