<svg xmlns="http://www.w3.org/2000/svg" width="21.5" height="21.5" viewBox="0 0 21.5 21.5">
  <path id="cart-4" d="M17.789,18.556a2.225,2.225,0,1,0,2.105,2.222A2.166,2.166,0,0,0,17.789,18.556Zm0,0H7.65A1.073,1.073,0,0,1,6.608,17.6l-.322-2.379M2,3H4.632l.3,2.222m0,0H22l-3.158,10H6.286m-1.353-10,1.353,10m5.188,5.556A2.166,2.166,0,0,1,9.368,23a2.225,2.225,0,0,1,0-4.444A2.166,2.166,0,0,1,11.474,20.778Z" transform="translate(-1.25 -2.25)" fill="none" stroke="#000" stroke-linecap="round" stroke-linejoin="round" stroke-width="1.5"/>
</svg>
