<svg xmlns="http://www.w3.org/2000/svg" width="16" height="16" viewBox="0 0 16 16">
  <path id="search" d="M17.143,18.06a.649.649,0,0,0,.917-.917Zm-1.92-8.675a5.838,5.838,0,0,1-5.838,5.838v1.3A7.135,7.135,0,0,0,16.52,9.385ZM9.385,15.223A5.838,5.838,0,0,1,3.547,9.385H2.25A7.135,7.135,0,0,0,9.385,16.52ZM3.547,9.385A5.838,5.838,0,0,1,9.385,3.547V2.25A7.135,7.135,0,0,0,2.25,9.385ZM9.385,3.547a5.838,5.838,0,0,1,5.838,5.838h1.3A7.135,7.135,0,0,0,9.385,2.25Zm8.675,13.6-3.622-3.622-.917.917,3.622,3.622Z" transform="translate(-2.25 -2.25)" fill="#3b3b3e"/>
</svg>
