<svg xmlns="http://www.w3.org/2000/svg" width="20" height="20" viewBox="0 0 20 20">
  <path id="user-2" d="M9.893,16.1h4.713V14.558H9.893Zm4.713,0a3.028,3.028,0,0,1,3.028,3.028h1.538a4.566,4.566,0,0,0-4.566-4.566ZM9.893,14.558a4.566,4.566,0,0,0-4.566,4.566H6.865A3.028,3.028,0,0,1,9.893,16.1Zm4.664-5.385a2.308,2.308,0,0,1-2.308,2.308v1.538A3.846,3.846,0,0,0,16.1,9.173ZM12.25,11.481A2.308,2.308,0,0,1,9.942,9.173H8.4a3.846,3.846,0,0,0,3.846,3.846ZM9.942,9.173A2.308,2.308,0,0,1,12.25,6.865V5.327A3.846,3.846,0,0,0,8.4,9.173ZM12.25,6.865a2.308,2.308,0,0,1,2.308,2.308H16.1A3.846,3.846,0,0,0,12.25,5.327Zm8.462,5.385a8.462,8.462,0,0,1-8.462,8.462V22.25a10,10,0,0,0,10-10ZM12.25,20.712A8.462,8.462,0,0,1,3.788,12.25H2.25a10,10,0,0,0,10,10ZM3.788,12.25A8.462,8.462,0,0,1,12.25,3.788V2.25a10,10,0,0,0-10,10ZM12.25,3.788a8.462,8.462,0,0,1,8.462,8.462H22.25a10,10,0,0,0-10-10Z" transform="translate(-2.25 -2.25)"/>
</svg>
